<?xml version="1.0" encoding="utf-8"?>
<svg version="1.1" id="Layer_1" xmlns="http://www.w3.org/2000/svg" xmlns:xlink="http://www.w3.org/1999/xlink" x="0px" y="0px"
	 width="36px" height="35.2px" viewBox="0 0 36 35.2" style="enable-background:new 0 0 36 35.2;" xml:space="preserve">
<style type="text/css">
	.st0{fill:#3FA652;}
	.st1{fill:#21552A;}
</style>
<g>
	<path class="st0" d="M33.7,10.8c-1.9-4.2-5.3-7.5-9.6-9.2c-2-0.8-4.1-1.2-6.2-1.2c-7,0-13.6,4.2-16.2,11.1C0,15.9,0.1,20.7,2,24.9
		c1.9,4.2,5.2,7.4,9.4,9.1l4-10.3c-1.6-0.7-2.8-2-3.4-3.6c-1.3-3.3,0.4-6.9,3.7-8.2s6.9,0.4,8.2,3.7c1.2,3.2-0.3,6.8-3.4,8.1l4,10.3
		c4.5-1.8,8-5.4,9.8-9.9C35.7,19.7,35.6,15,33.7,10.8z"/>
	<path class="st1" d="M34.1,10.6c-1.9-4.4-5.5-7.7-9.9-9.4c-4.4-1.7-9.3-1.6-13.6,0.4C6.2,3.5,2.9,7,1.2,11.5s-1.6,9.3,0.4,13.6
		c1.9,4.4,5.5,7.7,9.9,9.4c0.1,0,0.1,0,0.2,0c0.1,0,0.1-0.1,0.1-0.1l4.1-10.7c0-0.1,0-0.3-0.1-0.3c-1.6-0.6-2.8-1.8-3.4-3.4
		c-1.2-3,0.4-6.4,3.4-7.6s6.4,0.4,7.6,3.4s-0.4,6.4-3.4,7.6c-0.1,0-0.2,0.2-0.1,0.3l4.1,10.7c0,0.1,0.1,0.1,0.1,0.1c0,0,0.1,0,0.1,0
		c0,0,0.1,0,0.1,0c4.7-1.8,8.5-5.5,10.3-10.3C36.2,19.8,36.1,14.9,34.1,10.6z M24.3,34l-4-10.3c3.1-1.3,4.7-4.9,3.4-8.1
		c-1.3-3.3-4.9-4.9-8.2-3.7c-3.3,1.3-4.9,4.9-3.7,8.2c0.6,1.6,1.9,2.9,3.4,3.6l-4,10.3c-4.2-1.7-7.6-4.9-9.4-9.1
		c-1.9-4.2-2-9-0.4-13.3C4.3,4.7,10.9,0.5,17.9,0.5c2.1,0,4.2,0.4,6.2,1.2c4.3,1.7,7.8,4.9,9.6,9.2c1.9,4.2,2,9,0.4,13.3
		C32.3,28.6,28.8,32.2,24.3,34z"/>
	<path d="M34.2,31.7c-1,0-1.8,0.8-1.8,1.8s0.8,1.8,1.8,1.8c1,0,1.8-0.8,1.8-1.8S35.2,31.7,34.2,31.7z M34.2,34.8
		c-0.8,0-1.4-0.6-1.4-1.4c0-0.8,0.6-1.4,1.4-1.4c0.8,0,1.4,0.6,1.4,1.4C35.6,34.2,35,34.8,34.2,34.8z"/>
	<path d="M34.6,33.3c0.1-0.1,0.1-0.2,0.1-0.3c0-0.2-0.1-0.3-0.2-0.4c-0.1-0.1-0.3-0.1-0.5-0.1h-0.5v1.8h0.4v-0.7h0.2l0.4,0.7h0.4
		c-0.1-0.1-0.3-0.4-0.5-0.8C34.5,33.4,34.6,33.4,34.6,33.3z M34.3,33.2c-0.1,0-0.1,0.1-0.3,0.1h-0.1v-0.5H34c0.1,0,0.2,0,0.3,0.1
		c0.1,0,0.1,0.1,0.1,0.2C34.3,33.1,34.3,33.2,34.3,33.2z"/>
</g>
</svg>
